<svg version="1.0" xmlns="http://www.w3.org/2000/svg" viewBox="0 0 600.000000 545.000000"
    preserveAspectRatio="xMidYMid meet">

    <g transform="translate(0.000000,545.000000) scale(0.100000,-0.100000)"
        fill="#000000" stroke="none">
        <path
            d="M1202 5223 c-71 -126 -233 -408 -359 -628 -436 -760 -820 -1430 -831
            -1451 -10 -19 -1 -39 67 -155 67 -116 375 -647 705 -1219 56 -96 203 -349 326
            -562 l224 -388 693 0 693 0 23 38 c13 20 219 372 457 782 238 410 471 810 518
            890 46 80 116 200 155 268 56 99 72 121 82 110 22 -24 385 -598 385 -609 0 -7
            -13 -35 -29 -63 -16 -28 -76 -134 -133 -236 -58 -102 -203 -358 -323 -570
            -120 -212 -257 -455 -306 -540 -367 -648 -499 -883 -499 -886 0 -2 369 -4 819
            -4 l820 0 372 652 c205 359 500 877 656 1151 l284 497 -84 148 c-47 81 -182
            320 -302 532 -119 212 -245 435 -280 495 -56 99 -442 782 -589 1043 l-58 102
            -708 0 -707 0 -66 -112 c-348 -599 -1142 -1968 -1150 -1985 -6 -13 -14 -23
            -18 -23 -9 0 -358 573 -372 610 -7 21 2 44 61 150 622 1117 1212 2181 1212
            2185 0 3 -362 5 -804 5 l-804 0 -130 -227z m965 -247 c-3 -8 -74 -136 -158
            -283 -84 -147 -200 -353 -259 -458 -59 -104 -199 -352 -310 -550 -112 -198
            -230 -407 -263 -465 l-59 -105 28 -50 c30 -56 202 -360 299 -530 277 -486 326
            -577 321 -592 -13 -33 -301 -432 -311 -430 -5 2 -220 363 -477 802 l-468 798
            27 46 c14 25 117 201 228 391 111 190 298 509 415 710 346 593 382 653 406
            693 l24 37 281 0 c241 0 280 -2 276 -14z m1915 -868 c-10 -18 -60 -105 -109
            -193 -50 -88 -178 -315 -286 -505 -107 -190 -371 -658 -587 -1040 -216 -382
            -444 -786 -507 -898 l-115 -202 -294 0 c-162 0 -294 2 -294 5 0 3 20 40 44 83
            177 314 787 1394 955 1692 114 201 299 528 411 727 l205 363 298 0 299 0 -20
            -32z m544 -366 c50 -86 256 -438 459 -782 202 -344 373 -636 378 -650 10 -26
            -37 -111 -368 -670 -34 -58 -156 -265 -270 -460 -115 -195 -261 -445 -326
            -555 l-118 -200 -286 -3 -286 -2 12 22 c7 13 240 426 519 918 279 492 512 904
            517 915 9 16 0 39 -49 125 -402 703 -597 1054 -591 1063 19 35 308 437 312
            437 3 -1 47 -71 97 -158z"
        />
    </g>
</svg>